<?xml version="1.0" standalone="no"?>
<!DOCTYPE svg PUBLIC "-//W3C//DTD SVG 20010904//EN"
 "http://www.w3.org/TR/2001/REC-SVG-20010904/DTD/svg10.dtd">
<svg version="1.0" xmlns="http://www.w3.org/2000/svg"
 width="512.000000pt" height="512.000000pt" viewBox="0 0 512.000000 512.000000"
 preserveAspectRatio="xMidYMid meet">
<metadata>
Created by potrace 1.14, written by Peter Selinger 2001-2017
</metadata>
<g transform="translate(0.000000,512.000000) scale(0.100000,-0.100000)"
fill="#000000" stroke="none">
<path d="M817 4904 c-1 -1 -20 -5 -42 -8 -129 -21 -254 -85 -350 -181 -84 -84
-91 -93 -131 -170 -38 -72 -61 -136 -71 -202 -4 -26 -7 -835 -7 -1798 0 -1964
-7 -1796 75 -1963 70 -143 215 -271 372 -329 108 -39 104 -39 1918 -38 1962 2
1793 -5 1955 75 103 50 222 161 280 261 31 52 64 145 78 219 17 90 14 3545 -3
3605 -6 22 -14 49 -16 60 -3 11 -23 58 -46 104 -87 176 -284 324 -474 357 -41
6 -3531 15 -3538 8z m463 -744 l0 -320 -320 0 -320 0 0 213 c0 250 7 283 76
351 68 68 95 74 347 75 l217 1 0 -320z m2131 308 c4 -54 3 -1661 -1 -1675 -5
-18 -34 -19 -852 -19 -467 0 -848 2 -849 5 -3 19 -4 1669 -1 1684 4 16 53 17
853 17 672 0 849 -3 850 -12z m904 -5 c25 -8 64 -34 89 -59 68 -66 76 -105 76
-356 l0 -208 -320 0 -320 0 0 320 0 321 215 -1 c164 -1 226 -5 260 -17z
m-3047 -1052 c10 -1 12 -68 10 -318 l-3 -318 -315 0 -315 0 -3 314 c-1 184 2
317 7 320 7 5 558 6 619 2z m3212 -316 l0 -321 -320 0 -320 0 0 320 0 321 320
0 320 0 0 -320z m-3202 -1067 l2 -318 -37 -1 c-21 0 -165 -1 -320 -2 l-283 -2
0 321 0 321 318 -1 317 -1 3 -317z m2135 -527 c0 -465 -2 -849 -2 -853 -1 -5
-383 -8 -850 -8 -670 0 -850 3 -853 12 -3 11 -2 1584 1 1669 l1 26 853 1 852
0 -2 -847z m1067 526 l0 -322 -303 2 c-166 1 -310 2 -319 2 -17 1 -18 23 -18
320 l0 319 320 0 320 0 0 -321z m-3200 -1068 l0 -321 -232 4 c-227 3 -234 4
-273 28 -52 32 -77 56 -106 105 -23 39 -24 48 -27 273 l-4 232 321 0 321 0 0
-321z m3198 94 c-3 -215 -4 -230 -26 -272 -12 -23 -39 -58 -59 -77 -58 -55
-107 -64 -345 -64 l-208 0 0 320 0 320 321 0 320 0 -3 -227z"/>
</g>
</svg>
